<svg xmlns="http://www.w3.org/2000/svg" width="1500" height="1500" id="crypto-bitcoin">
  <path d="M0 168.585L0 0L512 0L512 137.033L512 155.943L512 345.593L512 371.483L512 382.92L512 409.977L512 427.539L512 455.205L512 472.269L512 496.474L512 512L498.378 512L348.272 512L326.725 512L182.985 512L161.978 512L11.1412 512L0 512L0 500.213L0 470.553L0 457.339L0 426.614L0 184.664L0 168.585ZM0 168.585C0.557778 166.69 0.565959 164.582 0.756176 162.625L1.89621 152.312C4.20706 136.884 7.70574 122.396 13.8587 108.004C31.105 67.664 68.6315 31.7714 109.067 15.7222C194.681 -18.2582 290.063 21.722 328.82 104.455C333.335 114.095 335.334 122.963 338.97 132.321L417.823 28.125C427.911 15.9916 437.771 35.2979 443.097 42.6536L493.272 110.406C499.773 119.159 506.564 127.55 512 137.033L512 0L0 0L0 168.585ZM512 345.593L512 155.943C509.967 159.086 508.445 162.496 506.358 165.621L439.946 258C432.909 267.993 432.632 265.243 432.527 277.221L432.494 297.763C432.491 300.077 432.923 303.496 432.198 305.649C429.709 313.042 420.72 313.111 417.099 306.625L416.938 306.341C415.704 304.059 416.367 296.54 416.38 293.731L416.392 275.181C416.366 268.805 417.608 270.12 414.153 265.267L397.013 242.015L346.346 168.567C345.38 167.137 344.569 165.678 343.275 164.531L342.108 163.325C341.685 168.054 341.937 172.947 341.897 177.699C341.464 228.866 315.026 275.81 276.237 308.225L267.385 315.029C264.679 316.921 261.612 318.549 259.353 320.971L318.68 321.439C328.581 321.453 335.164 324.442 338.57 335.033L338.816 334.635C342.536 328.692 348.52 326.556 355.132 326.553L493 326.564C496.868 326.6 501.362 327.942 504.34 330.41L504.65 330.66C509.318 334.452 510.427 340.154 512 345.593ZM0 184.664L0 426.614C7.00883 407.648 14.6268 409.681 32.8169 409.724L145.686 409.771C158.776 409.808 166.222 408.763 173.772 421.215L174.786 417.17C175.352 414.972 172.378 411.746 171.742 409.424L171.361 407.906C170.742 404.565 171.096 400.76 171.158 397.375C171.309 389.099 170.712 381.333 175.512 374.223C173.539 372.252 172.364 369.89 171.832 367.17L171.753 366.75C170.478 360.127 171.489 352.904 172.097 346.258C169.144 346.282 166.197 345.906 163.255 345.716C119.729 342.898 83.2284 328.979 51.6846 297.359C25.1782 270.789 6.32882 236.558 1.62 198.984C1.03344 194.304 1.09291 189.238 0 184.664ZM387.666 470.497L365.335 470.513C360.876 470.52 355.787 470.109 351.421 471.003C351.066 474.752 350.152 493.454 351.802 496.703C356.172 497.171 360.633 497.01 365.025 497.009L459.852 497.005L481.845 496.988C486.228 496.978 490.923 497.29 495.25 496.531C495.761 492.343 496.511 474.202 494.561 470.857C489.435 470.151 483.934 470.502 478.763 470.496L387.666 470.497ZM214.358 470.505L196.474 470.526C193.819 470.531 190.598 470.215 188.012 470.971L187.542 471.777L187.646 496.54C187.953 496.665 188.142 496.729 189.589 496.972L323.575 497.028C323.935 496.436 323.839 495.489 323.874 494.783L323.977 488.449L323.804 472.819L323.662 470.827C322.836 470.309 321.132 470.531 320.153 470.506L306.476 470.499L214.358 470.505ZM161.978 512L182.985 512C178.911 509.185 175.907 506.315 173.314 502.076C170.522 507.211 166.977 509.388 161.978 512ZM326.725 512L348.272 512C343.363 509.097 340.681 507.247 337.911 501.977C334.658 507.07 332.303 509.155 326.725 512ZM498.378 512L512 512L512 496.474C507.106 505.611 506.868 506.844 498.378 512ZM0 500.213L0 512L11.1412 512C6.00554 508.704 3.12751 505.415 0 500.213ZM512 472.269L512 455.205C510.229 457.82 508.457 460.445 507.368 463.429L512 472.269ZM512 409.977C510.413 412.475 508.477 414.912 507.538 417.741L512 427.539L512 409.977ZM0 457.339L0 470.553C4.85125 464.83 4.92222 463.035 0 457.339ZM512 371.483C506.201 373.419 508.748 379.728 512 382.92L512 371.483ZM172.332 459.875C171.236 461.744 173.22 467.403 174.392 465.684C175.565 463.39 177.171 458.586 172.332 459.875Z" transform="scale(2.92969)"></path>
  <path fill="#FEFAE0" d="M335.762 371.375L336.053 371.267C338.852 370.721 338.881 374.936 337.875 376.541L337.368 376.717C335.549 375.675 334.747 373.209 335.762 371.375zM335.469 459.125C340.657 459.332 339.167 464.303 338.308 467.18 337.428 465.457 332.527 460.24 335.469 459.125zM335.199 414.375C336.34 414.174 337.23 414.127 338.375 414.315 339.289 416.133 339.264 420.073 338.125 421.716 336.383 420.958 333.035 415.966 335.199 414.375z" transform="scale(2.92969)"></path>
  <path fill="#DDA15E" d="M254.319 281.875L267.108 294.83C257.633 304.923 238.088 314.846 224.308 319.089 215.171 321.901 205.679 321.381 196.262 321.393 193.354 321.397 189.975 321.166 187.205 322.136L186.875 322.256C185.479 322.743 184.263 323.3 182.966 324L176.1 329.358C175.573 327.337 175.786 324.739 175.773 322.632L175.761 310.586C204.074 308.569 231.486 298.84 254.319 281.875zM159.365 20.625C160.072 20.5871 159.918 20.5678 160.231 20.75L160.178 38.7922C159.41 39.1574 158.411 39.1529 157.567 39.2559L142.195 41.8535C123.078 46.1073 105.185 54.7517 89.2663 66.0389 88.6061 65.6992 88.0644 64.852 87.5652 64.2816L83.6697 59.9714 76.1534 52.0756C104.395 34.049 123.894 23.3397 159.365 20.625zM86.9621 284.166C88.2871 285.253 89.9366 286.152 91.3824 287.083L100.386 292.597C120.822 304.223 136.393 308.082 160.025 310.778 160.486 311.437 160.167 327.488 160.162 329.741 158.819 329.289 157.083 329.291 155.666 329.166L149.264 328.412C122.623 324.712 94.4974 314.535 73.9717 296.667 78.6786 293.094 82.7929 288.353 86.9621 284.166zM176.358 19.9678C212.836 21.9533 242.132 31.3071 269.78 54.953 269.273 55.8011 268.334 56.5746 267.633 57.2901L263.56 61.4469 258.031 67.9438C256.917 67.571 255.555 66.2805 254.571 65.5532L246.865 60.0527C228.189 47.6376 204.114 40.4677 181.692 39.2516 179.929 39.156 178.063 39.1925 176.34 38.7896L176.358 19.9678zM16.3266 184.231C18.0814 184.521 33.5103 184.548 33.8725 184.762 34.0205 184.85 34.7311 191.786 34.8425 192.528 39.3609 222.652 53.2965 252.468 75.8716 273.341L69.1662 279.509C66.96 281.633 64.8713 283.693 63.0968 286.207L50.7642 272.625C34.7154 253.134 25.7642 232.574 19.8284 208.361L16.9246 193.989C16.223 190.915 16.3682 187.383 16.3266 184.231zM307.743 184.03L325.697 184.493C325.781 186.155 325.431 187.964 325.268 189.625 321.458 228.295 307.206 254.272 281.523 281.594L279.728 283.639C275.546 278.933 270.544 275.329 265.677 271.383 289.94 247.337 305.234 218.815 307.743 184.03zM282.545 66.4662L283.625 67.2903C287.387 70.5907 290.606 74.643 293.729 78.5384 317.16 107.767 324.751 132.46 326.538 168.459 322.497 167.98 318.2 168.246 314.125 168.243L308.745 168.244C307.286 132.2 293.296 104.206 269.368 78.4909L282.545 66.4662zM64.3033 63.3399L76.8805 76.8584C52.5785 101.873 35.8034 132.319 34.4977 167.986 33.535 168.522 30.5577 167.899 29.2844 168.112L29.006 168.176 16.3961 168.424C19.7146 129.955 28.9062 103.558 55.0431 73.1703L64.3033 63.3399z" transform="scale(2.92969)"></path>
  <path fill="#E0D523" d="M358.372 342.353L474.801 342.263C478.664 342.262 492.368 340.989 495.054 343.625 496.529 347.46 495.672 364.117 495.121 368.237L488.544 368.433 350.514 367.812C349.922 360.689 350.13 350.45 350.911 343.465 352.06 342.482 356.804 342.465 358.372 342.353zM261.502 337.178L316.299 337.183C318.767 337.19 321.419 337.008 323.841 337.474L323.955 364.67 250.125 364.768 210.663 364.77C203.223 364.771 195.301 365.314 187.929 364.287 186.517 360.06 187.66 341.517 188.461 337.492 191.515 337.072 194.731 337.205 197.811 337.202L261.502 337.178zM119.231 470.497L152.901 470.515C161.68 470.625 160.553 470.189 160.611 478.646 160.652 484.583 160.91 490.762 159.694 496.602 155.124 497.236 150.388 497.029 145.781 497.033L56.9861 497.011 32.7272 497.034C27.559 497.027 22.0743 497.395 16.9867 496.489L16.8297 495.554C15.7054 489.368 16.1651 477.04 16.6779 470.701 20.4037 470.239 24.4185 470.505 28.181 470.506L119.231 470.497zM355.534 383.502L495.616 383.514 495.498 410.209C494.097 410.563 491.371 410.226 490.333 410.858L490.163 410.999C486.186 410.812 482.041 411.037 478.049 411.043L364.75 411.107C360.185 411.132 355.062 411.662 350.606 410.646 350.148 407.02 350.397 403.226 350.401 399.571L350.55 383.698 355.534 383.502zM275.723 380.06C277.679 379.88 279.812 380.035 281.785 380.031L309.516 380.046C313.501 380.054 319.628 379.238 323.26 381.239 324.121 386.713 324.168 392.882 323.776 398.414L323.07 409.679 235.07 409.743C231.908 409.397 228.318 409.723 225.11 409.732L194.915 410.261C192.251 410.296 188.439 410.942 187.752 407.627 187.194 404.932 187.075 382.455 188.216 381.061 188.772 380.381 192.966 380.192 193.968 380.148L275.723 380.06zM199.878 424.789C200.574 424.653 201.595 424.775 202.327 424.773L318.884 424.79C320.445 424.815 323.003 424.691 323.387 426.499L323.463 426.875C324.777 433.14 324.077 449.142 322.701 454.935 319.541 455.395 314.596 455.772 311.444 455.118 309.259 455.252 306.953 455.108 304.757 455.105L212.433 455.058C204.252 455.06 195.856 455.484 187.719 454.582 187.31 450.852 187.486 446.993 187.484 443.241L187.489 425.194C188.817 424.746 190.57 424.822 191.964 424.807L199.878 424.789zM377.991 425.87L482.526 425.868C484.927 425.872 493.38 424.757 494.809 426.955 496.598 429.708 495.666 451.103 494.665 455.101L469.515 455.067 367.394 455.063C362.038 455.062 356.623 455.275 351.301 454.609 349.886 448.39 349.983 433.766 350.726 427.104L352.302 426.749C356.042 425.657 360.145 425.921 364.012 425.906L377.991 425.87zM60.28 424.797L148.313 424.844C160.601 424.888 160.796 423.984 160.714 435.647L160.507 448.918C160.373 450.972 160.276 453.139 159.657 455.114L117.311 455.067 26.9915 455.106C23.8115 455.108 20.0565 455.515 16.9714 454.807L16.4941 451.037C16.3042 448.114 15.8857 427.323 17.0026 426.201 19.0786 424.117 33.9454 424.827 37.0985 424.823L60.28 424.797z" transform="scale(2.92969)"></path>
  <defs>
    <linearGradient id="a" x1="136.816" x2="49.601" y1="175.28" y2="178.037" gradientUnits="userSpaceOnUse">
      <stop offset="0" stop-color="#E3D421"></stop>
      <stop offset="1" stop-color="#D99668"></stop>
    </linearGradient>
  </defs>
  <path fill="url(#a)" d="M117.558 67.6906C117.515 73.1741 116.869 110.713 118.099 112.623L118.5 112.542C118.032 115.501 117.855 118.406 118.874 121.275L118.92 121.415L119.17 121.714C123.216 126.519 129.758 125.722 135.376 125.733L135.304 216.391C135.308 228.059 136.171 221.881 124.499 223.908L124.022 223.987C122.185 224.31 120.921 225.017 119.465 226.117C117.617 228.33 117.241 230.181 117.489 233.029L117.678 234.447C115.351 238.095 117.638 256.172 117.838 261.057C118.152 268.7 117.557 276.845 119.016 284.358C115.712 283.199 112.62 281.518 109.529 279.827C76.0651 261.523 52.4089 221.223 49.8195 183.36C46.4649 134.308 74.4068 89.5493 117.558 67.6906Z" transform="scale(2.92969)"></path>
  <path d="M109.48 167.347C122.626 167.965 121.048 181.545 109.329 182.41 96.9873 181.637 96.6841 168.548 109.48 167.347zM87.7667 224.309C100.421 223.11 103.006 238.38 90.6691 239.65 78.1275 238.941 74.9904 227.357 87.7667 224.309zM87.2071 109.069C98.912 107.601 103.588 121.12 91.4495 124.743 75.4578 125.06 77.0263 111 87.2071 109.069zM72.5917 166.841C74.7821 166.81 77.664 166.965 79.4924 168.293 84.9085 172.229 83.9218 181.911 73.9306 182.855 60.6289 183.037 59.9222 168.319 72.5917 166.841z" transform="scale(2.92969)"></path>
  <path fill="#4C7920" d="M424.96 45.7225L498.915 145.737C494.525 155.194 487.502 163.903 481.54 172.427L433.203 240.626L433.204 142.572C433.222 134.464 434.911 125.064 423.66 124.261C421.353 124.78 419.698 125.331 418.326 127.397L418.13 127.7C415.913 130.985 416.822 140.965 416.817 144.832L416.734 242.448C415.325 240.157 413.425 238.05 411.939 235.74L356.213 154.201C354.203 151.063 351.858 147.838 350.487 144.37C351.021 140.228 368.788 119.73 372.07 115.452L413.875 60.4097C417.599 55.5499 421.556 50.8156 424.96 45.7225Z" transform="scale(2.92969)"></path>
  <path d="M117.519 67.6906C121.202 65.3493 125.805 63.7573 129.875 62.2376C163.354 49.7369 209.224 53.3391 238.989 74.1481C281.223 101.313 300.893 154.188 288.566 202.493C286.111 212.115 277.518 232.398 270.858 240.498C265.7 250.428 252.304 262.187 243.847 269.064C206.972 295.762 161.738 302.113 119.051 284.358C117.557 276.845 118.152 268.7 117.838 261.057C117.638 256.172 115.351 238.095 117.678 234.447L117.489 233.029C117.241 230.181 117.617 228.33 119.465 226.117C120.921 225.017 122.185 224.31 124.022 223.987L124.499 223.908C136.171 221.881 135.308 228.059 135.304 216.391L135.376 125.733C129.758 125.722 123.216 126.519 119.17 121.714L118.92 121.415L118.874 121.275C117.855 118.406 118.032 115.501 118.5 112.542L118.099 112.623C116.869 110.713 117.515 73.1741 117.519 67.6906Z" transform="scale(2.92969)"></path>
  <path fill="#FEFAE0" d="M151.497 183.264L191.127 183.275C192.783 183.278 195.07 183.019 196.569 183.824 210.07 191.083 212.541 206.21 202.346 217.499 194.662 224.343 187.273 223.522 177.697 223.508L151.615 223.408C151.304 222.677 151.464 221.582 151.464 220.787L151.497 183.264zM151.498 126.255L184.634 126.481C190.739 126.548 197.095 127.462 201.833 131.743 210.701 139.753 211.022 152.939 203.093 161.655 198.456 166.117 193.714 166.941 187.599 167L151.5 167.038 151.498 126.255zM117.519 67.6906C121.202 65.3493 125.805 63.7573 129.875 62.2376 163.354 49.7369 209.224 53.3391 238.989 74.1481L220.668 89.9253C210.545 99.5456 209.798 101.987 205.137 113.883 202.764 112.771 200.135 111.873 197.565 111.348 194.098 110.64 195.087 111.016 195.075 107.239L195.027 88.3329C195.017 85.2601 195.45 81.3347 194.716 78.375 193.324 72.7667 184.724 71.8694 180.969 75.5181 177.576 78.8151 178.682 84.4088 178.694 88.6244L178.706 109.683 162.679 109.645 162.697 91.7754C162.696 85.63 163.421 75.8272 154.189 75.7188 145.438 75.6161 146.174 86.1745 146.194 92.051L146.373 109.671 134.703 109.649C128.877 109.647 123.587 109.228 118.5 112.542L118.099 112.623C116.869 110.713 117.515 73.1741 117.519 67.6906zM206.124 234.546C207.926 237.875 211.737 240.21 214.562 242.67L229.616 256.007C234.333 260.091 240.067 264.119 243.847 269.064 206.972 295.762 161.738 302.113 119.051 284.358 117.557 276.845 118.152 268.7 117.838 261.057 117.638 256.172 115.351 238.095 117.678 234.447 120.207 241.009 125.686 239.489 132.037 239.499L146.866 239.497 146.281 255.492C146.236 262.116 146.875 269.469 154.34 271.381 163.934 268.91 162.828 263.738 162.767 256.38L162.677 239.508 178.799 239.592 178.743 256.058C178.74 258.449 178.442 261.301 178.844 263.635 180.449 272.942 192.761 274.171 194.735 265.097 195.341 262.313 195.078 259.046 195.073 256.195L195.034 241.699C195.025 239.066 194.336 238.724 197.178 238.097 200.11 237.45 203.473 235.961 206.124 234.546z" transform="scale(2.92969)"></path>
  <path fill="#E0D523" d="M238.989 74.1481C281.223 101.313 300.893 154.188 288.566 202.493C286.111 212.115 277.518 232.398 270.858 240.498C265.7 250.428 252.304 262.187 243.847 269.064C240.067 264.119 234.333 260.091 229.616 256.007L214.562 242.67C211.737 240.21 207.926 237.875 206.124 234.546C209.199 232.468 211.921 230.428 214.675 227.935L218.016 223.7C228.405 209.179 227.285 186.257 211.949 175.458C232.872 159.534 227.536 126.183 205.137 113.883C209.798 101.987 210.545 99.5456 220.668 89.9253L238.989 74.1481Z" transform="scale(2.92969)"></path>
  <path d="M251.965 167.024C263.092 166.53 267.003 178.989 255.758 182.475 244.524 184.939 240.741 170.378 251.965 167.024zM251.231 106.798C263.393 105.474 267.19 116.5 255.716 121.803L254.51 122.139C250.471 123.112 245.488 119.062 244.75 115.189L244.697 114.875C243.88 110.251 247.122 107.871 251.231 106.798zM242.787 231.515C245.591 220.445 263.757 221.156 261.415 233.938L260.417 235.953C256.353 242.772 243.954 238.754 242.787 231.515z" transform="scale(2.92969)"></path>
  <defs>
    <linearGradient id="b" x1="263.385" x2="222.582" y1="219.267" y2="253.71" gradientUnits="userSpaceOnUse">
      <stop offset="0" stop-color="#DFC431"></stop>
      <stop offset="1" stop-color="#D58863"></stop>
    </linearGradient>
  </defs>
  <path fill="url(#b)" d="M206.124 234.546C209.199 232.468 211.921 230.428 214.675 227.935C216.464 228.682 219.372 228.265 221.404 228.469L234.873 230.181C236.14 230.4 241.713 232.015 242.537 231.875L242.787 231.515C243.954 238.754 256.353 242.772 260.417 235.953L261.415 233.938L261.704 234.067C262.074 232.634 262.099 231.655 263.178 230.605L264.698 230.246C265.461 230.08 266.092 230.307 266.813 230.307L270.543 231.091C270.933 231.187 270.769 231.143 271.252 231.348L272.457 231.472C272.924 233.188 273.424 233.19 273.625 231.387C273.797 232.413 273.629 233.245 273.538 234.266L273.439 235.5C273.371 235.973 272.311 237.584 271.877 237.875L271.638 238.473C271.285 238.827 271.407 238.682 271.188 239.188L270.858 240.498C265.7 250.428 252.304 262.187 243.847 269.064C240.067 264.119 234.333 260.091 229.616 256.007L214.562 242.67C211.737 240.21 207.926 237.875 206.124 234.546Z" transform="scale(2.92969)"></path>
</svg>
